<?xml version="1.0" encoding="UTF-8"?>
<svg width="20px" height="6px" viewBox="0 0 20 6" version="1.1" xmlns="http://www.w3.org/2000/svg" xmlns:xlink="http://www.w3.org/1999/xlink">
    <!-- Generator: Sketch 49.3 (51167) - http://www.bohemiancoding.com/sketch -->
    <title>menu_option [#1374]</title>
    <desc>Created with Sketch.</desc>
    <defs></defs>
    <g id="All" stroke="none" stroke-width="1" fill="none" fill-rule="evenodd">
        <g id="Posts---One-post--Published" transform="translate(-370.000000, -53.000000)" fill="#000000">
            <path d="M380,60 C378.343,60 377,61.343 377,63 C377,64.657 378.343,66 380,66 C381.657,66 383,64.657 383,63 C383,61.343 381.657,60 380,60 M380,53 C378.343,53 377,54.343 377,56 C377,57.657 378.343,59 380,59 C381.657,59 383,57.657 383,56 C383,54.343 381.657,53 380,53 M383,49 C383,47.343 381.657,46 380,46 C378.343,46 377,47.343 377,49 C377,50.657 378.343,52 380,52 C381.657,52 383,50.657 383,49 Z" id="menu_option-[#1374]" transform="translate(380.000000, 56.000000) rotate(90.000000) translate(-380.000000, -56.000000) "></path>
        </g>
    </g>
</svg>