<?xml version="1.0" encoding="UTF-8"?>
<svg width="24px" height="24px" viewBox="0 0 24 24" version="1.1" xmlns="http://www.w3.org/2000/svg" xmlns:xlink="http://www.w3.org/1999/xlink">
    <!-- Generator: Sketch 49.3 (51167) - http://www.bohemiancoding.com/sketch -->
    <title>flow</title>
    <desc>Created with Sketch.</desc>
    <defs></defs>
    <g id="Symbols" stroke="none" stroke-width="1" fill="none" fill-rule="evenodd">
        <g id="Components/Global/Navbar/Flux-Copy" transform="translate(-28.000000, -9.000000)">
            <g id="flow" transform="translate(28.000000, 9.000000)">
                <rect id="Rectangle-16" x="0" y="0" width="24" height="24" rx="6"></rect>
                <path d="M17.4458593,5.7815723 C18.3044233,5.7815723 19,6.47714902 19,7.33571296 L19,16.6622032 C19,17.5207672 18.3044233,18.2163439 17.4458593,18.2163439 L14.214926,18.2171671 L16.3584548,17.4376272 C16.923971,17.2318353 17.3767133,16.8177819 17.6310721,16.2711986 C17.8854309,15.7254384 17.9117723,15.1130016 17.7059803,14.5474854 L14.5153823,5.78321864 C14.5153823,5.78321864 14.5153823,5.78239547 14.5145591,5.7815723 L17.4458593,5.7815723 Z M17.0479401,14.7870272 C17.3418109,15.5937315 16.9261112,16.4860453 16.1194069,16.779093 L10.2757392,18.9061584 C9.46903487,19.1992061 8.57754423,18.7835064 8.28367335,17.9768021 L5.09389843,9.21335853 C4.80085073,8.40665416 5.21655042,7.51434035 6.02325479,7.22046948 L11.8660993,5.09422725 C12.6728036,4.80035638 13.5642943,5.21687924 13.8581652,6.02358361 L17.0479401,14.7870272 Z" id="Combined-Shape" fill="#FFFFFF"></path>
            </g>
        </g>
    </g>
</svg>