<?xml version="1.0" encoding="UTF-8"?>
<svg width="24px" height="24px" viewBox="0 0 24 24" version="1.1" xmlns="http://www.w3.org/2000/svg" xmlns:xlink="http://www.w3.org/1999/xlink">
    <!-- Generator: Sketch 49.3 (51167) - http://www.bohemiancoding.com/sketch -->
    <title>posts</title>
    <desc>Created with Sketch.</desc>
    <defs></defs>
    <g id="Symbols" stroke="none" stroke-width="1" fill="none" fill-rule="evenodd">
        <g id="Components/Global/Navbar/Flux-Copy" transform="translate(-194.000000, -9.000000)">
            <g id="posts" transform="translate(194.000000, 9.000000)">
                <g id="Group-4" >
                    <rect id="Rectangle-16" x="0" y="0" width="24" height="24" rx="6"></rect>
                </g>
                <path d="M6,17 L18,17 C18.5522847,17 19,17.4477153 19,18 L19,18 C19,18.5522847 18.5522847,19 18,19 L6,19 C5.44771525,19 5,18.5522847 5,18 L5,18 C5,17.4477153 5.44771525,17 6,17 Z" id="Rectangle" fill="#FFFFFF"></path>
                <path d="M6,14 L18,14 C18.5522847,14 19,14.4477153 19,15 L19,15 C19,15.5522847 18.5522847,16 18,16 L6,16 C5.44771525,16 5,15.5522847 5,15 L5,15 C5,14.4477153 5.44771525,14 6,14 Z" id="Rectangle-Copy-2" fill="#FFFFFF"></path>
                <path d="M7,5 L17,5 C18.1045695,5 19,5.8954305 19,7 L19,11 C19,12.1045695 18.1045695,13 17,13 L7,13 C5.8954305,13 5,12.1045695 5,11 L5,7 C5,5.8954305 5.8954305,5 7,5 Z" id="Rectangle-Copy-3" fill="#FFFFFF"></path>
            </g>
        </g>
    </g>
</svg>