<?xml version="1.0" encoding="UTF-8"?>
<svg width="44px" height="44px" viewBox="0 0 44 44" version="1.1" xmlns="http://www.w3.org/2000/svg" xmlns:xlink="http://www.w3.org/1999/xlink">
    <!-- Generator: Sketch 49.3 (51167) - http://www.bohemiancoding.com/sketch -->
    <title>indifferent</title>
    <desc>Created with Sketch.</desc>
    <defs></defs>
    <g id="Symbols" stroke="none" stroke-width="1" fill="none" fill-rule="evenodd">
        <g id="Components/Flux/Cards/Mood" transform="translate(-228.000000, -462.000000)">
            <g id="indifferent" transform="translate(228.000000, 462.000000)">
                <path d="M40.2831892,18.4321351 C40.2831892,16.7473514 40.0805811,15.1101351 39.7024189,13.5417432 C38.6218919,11.2892703 37.1233649,9.27418919 35.3086622,7.59624324 C31.9802703,5.60791892 28.0596622,4.52427027 23.8967568,4.67618919 C12.410973,5.09478378 3.43958108,14.7453514 3.85817568,26.2309865 C3.91956757,27.9113108 4.18074324,29.5367838 4.61435135,31.0877838 C5.55128378,32.8730541 6.75444595,34.4974865 8.17210811,35.906973 C11.4263243,38.0161486 15.3057568,39.2426486 19.4728243,39.2426486 C30.9658919,39.2426486 40.2831892,29.9253514 40.2831892,18.4321351 L40.2831892,18.4321351 Z M29.3826351,14.8645676 C30.6960946,14.8645676 31.7610135,15.9294865 31.7610135,17.2429459 C31.7610135,18.5564054 30.6960946,19.6213243 29.3826351,19.6213243 C28.0691757,19.6213243 27.0042568,18.5564054 27.0042568,17.2429459 C27.0042568,15.9294865 28.0691757,14.8645676 29.3826351,14.8645676 L29.3826351,14.8645676 Z M14.6664189,19.6213243 C13.3529595,19.6213243 12.2880405,18.5564054 12.2880405,17.2429459 C12.2880405,15.9294865 13.3529595,14.8645676 14.6664189,14.8645676 C15.9798784,14.8645676 17.0447973,15.9294865 17.0447973,17.2429459 C17.0447973,18.5564054 15.9798784,19.6213243 14.6664189,19.6213243 L14.6664189,19.6213243 Z M25.8721486,24.6970811 C28.3438784,24.3542973 30.8703108,24.9054865 32.9867703,26.2497162 L31.7116622,28.2573649 C30.0705811,27.2148919 28.113027,26.7872297 26.1991757,27.0527162 C23.1188784,27.4806757 20.5028108,29.6665541 19.5345135,32.6216892 L17.2743108,31.8811216 C18.5235541,28.0688784 21.8983243,25.2490135 25.8721486,24.6970811 L25.8721486,24.6970811 Z" id="Shape" fill="#FFCE00"></path>
                <path d="M39.7024189,13.5417432 C40.0805811,15.1102838 40.2831892,16.7473514 40.2831892,18.4321351 C40.2831892,29.9253514 30.9658919,39.2426486 19.4726757,39.2426486 C15.3057568,39.2426486 11.4261757,38.0161486 8.17195946,35.906973 C11.7216892,39.4364865 16.6101486,41.621027 21.9997027,41.621027 C32.8189459,41.621027 41.621027,32.8189459 41.621027,21.9997027 C41.621027,18.9729189 40.9315946,16.1041486 39.7024189,13.5417432 L39.7024189,13.5417432 Z" id="Shape" fill="#FFB100"></path>
                <path d="M23.8967568,4.67604054 C28.0598108,4.52427027 31.9804189,5.60777027 35.3086622,7.59609459 C31.8085811,4.35956757 27.1315,2.37837838 21.9997027,2.37837838 C11.1804595,2.37837838 2.37837838,11.1804595 2.37837838,21.9997027 C2.37837838,25.2774054 3.18732432,28.3691486 4.61435135,31.0877838 C4.18074324,29.5367838 3.91956757,27.9113108 3.85817568,26.2309865 C3.43958108,14.7453514 12.410973,5.09478378 23.8967568,4.67604054 L23.8967568,4.67604054 Z" id="Shape" fill="#FFE454"></path>
                <path d="M21.9997027,0 C9.86908108,0 0,9.86908108 0,21.9997027 C0,34.1303243 9.86908108,43.9994054 21.9997027,43.9994054 C34.1303243,43.9994054 43.9994054,34.1303243 43.9994054,21.9997027 C43.9994054,9.86908108 34.1303243,0 21.9997027,0 L21.9997027,0 Z M21.9997027,41.621027 C16.6101486,41.621027 11.7216892,39.4364865 8.17195946,35.906973 C6.75444595,34.4974865 5.55113514,32.8730541 4.6142027,31.0877838 C3.18732432,28.3691486 2.37837838,25.2774054 2.37837838,21.9997027 C2.37837838,11.1804595 11.1804595,2.37837838 21.9997027,2.37837838 C27.1315,2.37837838 31.8085811,4.35956757 35.3086622,7.59624324 C37.1233649,9.27418919 38.6218919,11.2892703 39.7024189,13.5417432 C40.9317432,16.1041486 41.621027,18.9729189 41.621027,21.9997027 C41.621027,32.8189459 32.8189459,41.621027 21.9997027,41.621027 L21.9997027,41.621027 Z" id="Shape" fill="#000000"></path>
                <path d="M26.1991757,27.0527162 C28.113027,26.7872297 30.0705811,27.2148919 31.7116622,28.2573649 L32.9867703,26.2497162 C30.8703108,24.9054865 28.3438784,24.3542973 25.8721486,24.6970811 C21.898473,25.2491622 18.5235541,28.069027 17.2743108,31.8811216 L19.5345135,32.6216892 C20.5028108,29.6665541 23.1188784,27.4806757 26.1991757,27.0527162 L26.1991757,27.0527162 Z" id="Shape" fill="#000000"></path>
                <circle id="Oval" fill="#000000" cx="14.6664189" cy="17.2429459" r="2.37837838"></circle>
                <circle id="Oval" fill="#000000" cx="29.3826351" cy="17.2429459" r="2.37837838"></circle>
            </g>
        </g>
    </g>
</svg>