<?xml version="1.0" encoding="UTF-8"?>
<svg width="44px" height="44px" viewBox="0 0 44 44" version="1.1" xmlns="http://www.w3.org/2000/svg" xmlns:xlink="http://www.w3.org/1999/xlink">
    <!-- Generator: Sketch 49.3 (51167) - http://www.bohemiancoding.com/sketch -->
    <title>sunglasses-1</title>
    <desc>Created with Sketch.</desc>
    <defs></defs>
    <g id="Symbols" stroke="none" stroke-width="1" fill="none" fill-rule="evenodd">
        <g id="Components/Flux/Cards/Mood" transform="translate(-24.000000, -462.000000)">
            <g id="sunglasses-1" transform="translate(24.000000, 462.000000)">
                <path d="M35.3086622,7.59624324 C31.9802703,5.60791892 28.0596622,4.52427027 23.8967568,4.67604054 C17.7308108,4.9007973 12.2902703,7.78710811 8.63737838,12.1887432 L12.2847703,12.1887432 C15.1135541,12.1887432 17.5606081,13.7813649 18.7790811,16.1215405 C19.6254865,15.3448514 20.7572973,14.8777973 21.9995541,14.8777973 C23.2386892,14.8777973 24.3678243,15.342473 25.2136351,16.1154459 C26.4365676,13.7785405 28.8880811,12.1887432 31.7143378,12.1887432 L38.7968514,12.1887432 L38.9868243,12.1887432 C37.9951892,10.4779459 36.7517432,8.93066216 35.3086622,7.59624324 L35.3086622,7.59624324 Z" id="Shape" fill="#FFCE00"></path>
                <path d="M40.2831892,18.4321351 C40.2831892,17.1110946 40.1578784,15.8196351 39.9222703,14.5671216 L39.0446486,14.5671216 L39.0446486,19.4726757 C39.0446486,23.5206757 35.7623378,26.8145811 31.7143378,26.8145811 C27.7085541,26.8145811 24.4552297,23.6109054 24.3874459,19.6211757 L24.3644054,19.6211757 C24.3644054,18.2833378 23.3035,17.2561757 21.9995541,17.2561757 C20.6956081,17.2561757 19.6347027,18.2833378 19.6347027,19.6211757 L19.5993243,19.6211757 C19.5318378,23.6106081 16.2412027,26.8028378 12.2354189,26.8028378 C8.18756757,26.8028378 4.85560811,23.5206757 4.85560811,19.472527 L4.85560811,18.8999324 C4.11236486,21.1975946 3.74014865,23.6682838 3.83364865,26.2306892 C3.89489189,27.9110135 4.16855405,29.5364865 4.60216216,31.0874865 C5.53909459,32.8727568 6.7485,34.4971892 8.16601351,35.9066757 C11.4202297,38.0158514 15.3027838,39.2423514 19.4697027,39.2423514 C30.9629189,39.2426486 40.2831892,29.9253514 40.2831892,18.4321351 L40.2831892,18.4321351 Z M12.5089324,30.0429324 L14.2646216,28.4385676 C16.2462568,30.6070541 19.0653784,31.8506486 21.9994054,31.8506486 C24.9334324,31.8506486 27.7527027,30.6070541 29.7344865,28.4385676 L31.4901757,30.0429324 C29.059027,32.7031486 25.5998243,34.229027 21.9994054,34.229027 C18.3989865,34.229027 14.9399324,32.7031486 12.5089324,30.0429324 L12.5089324,30.0429324 Z" id="Shape" fill="#FFCE00"></path>
                <path d="M40.1574324,14.5671216 L39.9222703,14.5671216 C40.1578784,15.8196351 40.2831892,17.1110946 40.2831892,18.4321351 C40.2831892,29.9253514 30.9658919,39.2426486 19.4726757,39.2426486 C15.3057568,39.2426486 11.4261757,38.0161486 8.17210811,35.906973 C11.7218378,39.4364865 16.6104459,41.621027 21.9997027,41.621027 C32.8189459,41.621027 41.621027,32.8189459 41.621027,21.9997027 C41.621027,19.3704054 41.0998649,16.8607703 40.1574324,14.5671216 L40.1574324,14.5671216 Z" id="Shape" fill="#FFB100"></path>
                <path d="M23.8967568,4.67604054 C28.0598108,4.52427027 31.9804189,5.60791892 35.3086622,7.59624324 C31.8085811,4.35956757 27.1315,2.37837838 21.9997027,2.37837838 C14.7520405,2.37837838 8.41009459,6.32856757 5.01258108,12.1887432 L5.20225676,12.1887432 L8.63722973,12.1887432 C12.2902703,7.78710811 17.7306622,4.9007973 23.8967568,4.67604054 L23.8967568,4.67604054 Z" id="Shape" fill="#FFE454"></path>
                <path d="M4.85545946,18.9000811 L4.85545946,14.5671216 L3.84197297,14.5671216 C2.89954054,16.8607703 2.37837838,19.3704054 2.37837838,21.9997027 C2.37837838,25.2774054 3.18732432,28.3691486 4.61435135,31.0877838 C4.18074324,29.5367838 3.89474324,27.9113108 3.8335,26.2309865 C3.74,23.6685811 4.11221622,21.1978919 4.85545946,18.9000811 L4.85545946,18.9000811 Z" id="Shape" fill="#FFE454"></path>
                <path d="M21.9997027,0 C9.86908108,0 0,9.86908108 0,21.9997027 C0,34.1303243 9.86908108,43.9994054 21.9997027,43.9994054 C34.1303243,43.9994054 43.9994054,34.1303243 43.9994054,21.9997027 C43.9994054,9.86908108 34.130473,0 21.9997027,0 L21.9997027,0 Z M21.9997027,41.621027 C16.6102973,41.621027 11.7216892,39.4364865 8.17210811,35.906973 C6.75459459,34.4974865 5.55128378,32.8730541 4.61435135,31.0877838 C3.18732432,28.3691486 2.37837838,25.2774054 2.37837838,21.9997027 C2.37837838,19.3704054 2.89954054,16.8607703 3.84197297,14.5671216 L4.85545946,14.5671216 L4.85545946,18.9000811 L4.85545946,19.4726757 C4.85545946,23.5206757 8.18741892,26.8029865 12.2352703,26.8029865 C16.2410541,26.8029865 19.5316892,23.6106081 19.5991757,19.6213243 L19.6345541,19.6213243 C19.6345541,18.2834865 20.6954595,17.2563243 21.9994054,17.2563243 C23.3033514,17.2563243 24.3642568,18.2834865 24.3642568,19.6213243 L24.3872973,19.6213243 C24.4550811,23.6110541 27.7082568,26.8147297 31.7141892,26.8147297 C35.7620405,26.8147297 39.0445,23.520973 39.0445,19.4728243 L39.0445,14.5672703 L39.9221216,14.5672703 L40.1572838,14.5672703 C41.0997162,16.8609189 41.6208784,19.3705541 41.6208784,21.9998514 C41.621027,32.8189459 32.8189459,41.621027 21.9997027,41.621027 L21.9997027,41.621027 Z M31.7144865,12.1887432 C28.8880811,12.1887432 26.4367162,13.7785405 25.2137838,16.1154459 C24.3678243,15.342473 23.2388378,14.8777973 21.9997027,14.8777973 C20.7574459,14.8777973 19.6256351,15.345 18.7792297,16.1215405 C17.5607568,13.7813649 15.1137027,12.1887432 12.2849189,12.1887432 L8.63752703,12.1887432 L5.20255405,12.1887432 L5.01287838,12.1887432 C8.41009459,6.32856757 14.7520405,2.37837838 21.9997027,2.37837838 C27.1315,2.37837838 31.8085811,4.35956757 35.3086622,7.59624324 C36.7517432,8.93081081 37.9950405,10.4780946 38.9868243,12.1888919 L38.7968514,12.1888919 C37.6980405,12.1887432 33.8013649,12.1887432 31.7144865,12.1887432 L31.7144865,12.1887432 Z" id="Shape" fill="#000000"></path>
                <path d="M31.4901757,30.0429324 L29.7344865,28.4385676 C27.7527027,30.6070541 24.9334324,31.8506486 21.9994054,31.8506486 C19.0653784,31.8506486 16.2462568,30.6070541 14.2646216,28.4385676 L12.5089324,30.0429324 C14.9399324,32.7031486 18.3989865,34.229027 21.9994054,34.229027 C25.5998243,34.229027 29.059027,32.7031486 31.4901757,30.0429324 L31.4901757,30.0429324 Z" id="Shape" fill="#000000"></path>
            </g>
        </g>
    </g>
</svg>