<?xml version="1.0" encoding="UTF-8"?>
<svg width="16px" height="16px" viewBox="0 0 16 16" version="1.1" xmlns="http://www.w3.org/2000/svg" xmlns:xlink="http://www.w3.org/1999/xlink">
    <!-- Generator: Sketch 49.3 (51167) - http://www.bohemiancoding.com/sketch -->
    <title>Input / Icon / Email</title>
    <desc>Created with Sketch.</desc>
    <defs></defs>
    <g id="Symbols" stroke="none" stroke-width="1" fill="none" fill-rule="evenodd">
        <g id="Form-/-_Assets-/-Left-/-Input-/-Default" transform="translate(-16.000000, -19.000000)" fill="#461A9C" fill-rule="nonzero">
            <g id="Input-/-Icon-/-Email" transform="translate(16.000000, 19.000000)">
                <path d="M11.6362641,7.99993239 L11.6362641,8.72716928 C11.6362641,9.53045296 12.2874542,10.1816431 13.0907379,10.1816431 C13.8940215,10.1816431 14.5452116,9.53045296 14.5452116,8.72716928 L14.5452116,7.99997818 C14.5450201,4.95839289 12.4495484,2.31776577 9.48755154,1.62652339 C6.52555474,0.935281004 3.47770864,2.37560998 2.13122729,5.10292168 C0.784745949,7.83023338 1.49451339,11.1257066 3.84433199,13.0569222 C6.19415059,14.9881378 9.5646927,15.0460968 11.9795199,13.196813 C12.2983982,12.9526147 12.754862,13.0131549 12.9990602,13.3320332 C13.2432584,13.6509116 13.1827183,14.1073753 12.8638399,14.3515736 C9.91238449,16.6118094 5.79283301,16.5409705 2.92083251,14.1805959 C0.0488320034,11.8202213 -0.81866154,7.79242072 0.82703788,4.45903975 C2.4727373,1.12565879 6.19788253,-0.634743296 9.81810085,0.210108505 C13.4383192,1.05496031 15.9994513,4.28239346 15.9996854,7.99993239 L15.9996854,8.72716928 C15.9996854,10.3337366 14.6973052,11.6361168 13.0907379,11.6361168 C12.1126783,11.6361168 11.2473576,11.1534244 10.7199992,10.413263 C10.0539069,11.1634265 9.08219462,11.6361168 8.00007964,11.6361168 C5.99187043,11.6361168 4.3638952,10.0081416 4.3638952,7.99993239 C4.3638952,5.99172318 5.99187043,4.36374795 8.00007964,4.36374795 C10.0082889,4.36374795 11.6362641,5.99172318 11.6362641,7.99993239 Z M8.00007964,10.1816431 C9.20500517,10.1816431 10.1817903,9.20485792 10.1817903,7.99993239 C10.1817903,6.79500686 9.20500517,5.81822173 8.00007964,5.81822173 C6.79515411,5.81822173 5.81836898,6.79500686 5.81836898,7.99993239 C5.81836898,9.20485792 6.79515411,10.1816431 8.00007964,10.1816431 Z" id="Combined-Shape"></path>
            </g>
        </g>
    </g>
</svg>