<?xml version="1.0" encoding="UTF-8"?>
<svg width="26px" height="26px" viewBox="0 0 26 26" version="1.1" xmlns="http://www.w3.org/2000/svg" xmlns:xlink="http://www.w3.org/1999/xlink">
    <!-- Generator: Sketch 49.3 (51167) - http://www.bohemiancoding.com/sketch -->
    <title>Combined Shape</title>
    <desc>Created with Sketch.</desc>
    <defs>
        <path d="M81.4142136,11 L83.7071068,8.70710678 C84.0976311,8.31658249 84.0976311,7.68341751 83.7071068,7.29289322 C83.3165825,6.90236893 82.6834175,6.90236893 82.2928932,7.29289322 L80,9.58578644 L77.7071068,7.29289322 C77.3165825,6.90236893 76.6834175,6.90236893 76.2928932,7.29289322 C75.9023689,7.68341751 75.9023689,8.31658249 76.2928932,8.70710678 L78.5857864,11 L76.2928932,13.2928932 C75.9023689,13.6834175 75.9023689,14.3165825 76.2928932,14.7071068 C76.6834175,15.0976311 77.3165825,15.0976311 77.7071068,14.7071068 L80,12.4142136 L82.2928932,14.7071068 C82.6834175,15.0976311 83.3165825,15.0976311 83.7071068,14.7071068 C84.0976311,14.3165825 84.0976311,13.6834175 83.7071068,13.2928932 L81.4142136,11 Z M80,22 C73.9248678,22 69,17.0751322 69,11 C69,4.92486775 73.9248678,0 80,0 C86.0751322,0 91,4.92486775 91,11 C91,17.0751322 86.0751322,22 80,22 Z" id="path-1"></path>
    </defs>
    <g id="All" stroke="none" stroke-width="1" fill="none" fill-rule="evenodd">
        <g id="Post---Survey---Step-1" transform="translate(-179.000000, -291.000000)" fill-rule="nonzero">
            <g id="Group" transform="translate(16.000000, 272.000000)">
                <g id="Photo-+-Delete" transform="translate(96.000000, 21.000000)">
                    <g id="Combined-Shape">
                        <use fill="#000000" fill-rule="evenodd" xlink:href="#path-1"></use>
                        <path stroke="#FFFFFF" stroke-width="2" d="M80.3535534,10.6464466 L83,8 L80.3535534,10.6464466 Z M80,23 C73.372583,23 68,17.627417 68,11 C68,4.372583 73.372583,-1 80,-1 C86.627417,-1 92,4.372583 92,11 C92,17.627417 86.627417,23 80,23 Z"></path>
                    </g>
                </g>
            </g>
        </g>
    </g>
</svg>