<?xml version="1.0" encoding="UTF-8" standalone="no"?>
<!DOCTYPE svg PUBLIC "-//W3C//DTD SVG 1.1//EN" "http://www.w3.org/Graphics/SVG/1.1/DTD/svg11.dtd">
<svg width="100%" height="100%" viewBox="0 0 16 24" version="1.1" xmlns="http://www.w3.org/2000/svg" xmlns:xlink="http://www.w3.org/1999/xlink" xml:space="preserve" style="fill-rule:evenodd;clip-rule:evenodd;stroke-linejoin:round;stroke-miterlimit:1.41421;">
    <g transform="matrix(0.75,0,0,0.75,4.46,3)">
        <path d="M12,10C10.9,10 10,10.9 10,12C10,13.1 10.9,14 12,14C13.1,14 14,13.1 14,12C14,10.9 13.1,10 12,10ZM12,4C10.9,4 10,4.9 10,6C10,7.1 10.9,8 12,8C13.1,8 14,7.1 14,6C14,4.9 13.1,4 12,4ZM12,16C10.9,16 10,16.9 10,18C10,19.1 10.9,20 12,20C13.1,20 14,19.1 14,18C14,16.9 13.1,16 12,16Z" style="fill-rule:nonzero;"/>
    </g>
</svg>
