<?xml version="1.0" encoding="UTF-8"?>
<svg width="44px" height="44px" viewBox="0 0 44 44" version="1.1" xmlns="http://www.w3.org/2000/svg" xmlns:xlink="http://www.w3.org/1999/xlink">
    <!-- Generator: Sketch 49.3 (51167) - http://www.bohemiancoding.com/sketch -->
    <title>happy-1</title>
    <desc>Created with Sketch.</desc>
    <defs></defs>
    <g id="Symbols" stroke="none" stroke-width="1" fill="none" fill-rule="evenodd">
        <g id="Components/Flux/Cards/Mood" transform="translate(-92.000000, -462.000000)">
            <g id="happy-1" transform="translate(92.000000, 462.000000)">
                <path d="M40.2831892,18.4321351 C40.2831892,16.7473514 40.0805811,15.1101351 39.7024189,13.5415946 C38.6218919,11.2892703 37.1233649,9.27418919 35.3086622,7.59624324 C31.9802703,5.60791892 28.0596622,4.52427027 23.8967568,4.67604054 C12.410973,5.09463514 3.43958108,14.7453514 3.85817568,26.2309865 C3.91941892,27.9113108 4.18074324,29.5367838 4.61435135,31.0877838 C5.55128378,32.8730541 6.75444595,34.4974865 8.17210811,35.906973 C11.4263243,38.0161486 15.3057568,39.2426486 19.4726757,39.2426486 C30.9658919,39.2426486 40.2831892,29.9253514 40.2831892,18.4321351 L40.2831892,18.4321351 Z M29.3576622,13.6753784 C30.6711216,13.6753784 31.7360405,14.7402973 31.7360405,16.0537568 C31.7360405,17.3672162 30.6711216,18.4321351 29.3576622,18.4321351 C28.0442027,18.4321351 26.9792838,17.3672162 26.9792838,16.0537568 C26.9792838,14.7402973 28.0442027,13.6753784 29.3576622,13.6753784 L29.3576622,13.6753784 Z M14.6414459,13.6753784 C15.9549054,13.6753784 17.0198243,14.7402973 17.0198243,16.0537568 C17.0198243,17.3672162 15.9549054,18.4321351 14.6414459,18.4321351 C13.3279865,18.4321351 12.2630676,17.3672162 12.2630676,16.0537568 C12.2630676,14.7402973 13.3279865,13.6753784 14.6414459,13.6753784 L14.6414459,13.6753784 Z M8.62162162,21.9995541 L35.3774865,21.9995541 C35.3774865,29.3879865 29.3879865,35.3776351 21.9997027,35.3776351 C14.6111216,35.3776351 8.62162162,29.3879865 8.62162162,21.9995541 L8.62162162,21.9995541 Z" id="Shape" fill="#FFCE00"></path>
                <path d="M39.7024189,13.5415946 C40.0805811,15.1102838 40.2831892,16.7473514 40.2831892,18.4321351 C40.2831892,29.9253514 30.9658919,39.2426486 19.4726757,39.2426486 C15.3057568,39.2426486 11.4261757,38.0161486 8.17210811,35.906973 C11.7218378,39.4364865 16.6104459,41.621027 21.9997027,41.621027 C32.8189459,41.621027 41.621027,32.8189459 41.621027,21.9997027 C41.621027,18.9729189 40.9315946,16.1041486 39.7024189,13.5415946 L39.7024189,13.5415946 Z" id="Shape" fill="#FFB100"></path>
                <path d="M23.8967568,4.67604054 C28.0598108,4.52427027 31.9804189,5.60791892 35.3086622,7.59624324 C31.8085811,4.35956757 27.1315,2.37837838 21.9997027,2.37837838 C11.1804595,2.37837838 2.37837838,11.1804595 2.37837838,21.9997027 C2.37837838,25.2772568 3.18732432,28.3691486 4.61435135,31.0877838 C4.18074324,29.5367838 3.91941892,27.9113108 3.85817568,26.2309865 C3.43958108,14.7453514 12.410973,5.09463514 23.8967568,4.67604054 L23.8967568,4.67604054 Z" id="Shape" fill="#FFE454"></path>
                <path d="M21.9997027,0 C9.86908108,0 0,9.86908108 0,21.9997027 C0,34.1303243 9.86908108,43.9994054 21.9997027,43.9994054 C34.1303243,43.9994054 43.9994054,34.1303243 43.9994054,21.9997027 C43.9994054,9.86908108 34.130473,0 21.9997027,0 L21.9997027,0 Z M21.9997027,41.621027 C16.6102973,41.621027 11.7216892,39.4364865 8.17210811,35.906973 C6.75459459,34.4974865 5.55128378,32.8730541 4.61435135,31.0877838 C3.18732432,28.3691486 2.37837838,25.2772568 2.37837838,21.9997027 C2.37837838,11.1804595 11.1804595,2.37837838 21.9997027,2.37837838 C27.1315,2.37837838 31.8085811,4.35956757 35.3086622,7.59624324 C37.1233649,9.27418919 38.6218919,11.2892703 39.7024189,13.5415946 C40.9317432,16.1041486 41.621027,18.9729189 41.621027,21.9997027 C41.621027,32.8189459 32.8189459,41.621027 21.9997027,41.621027 L21.9997027,41.621027 Z" id="Shape" fill="#000000"></path>
                <path d="M21.9903378,32.9992568 C27.2392703,32.9992568 31.6313919,29.304 32.7212838,24.3779324 L32.7022568,24.3779324 L11.2589459,24.3779324 C12.3486892,29.304 16.7412568,32.9992568 21.9903378,32.9992568 L21.9903378,32.9992568 Z" id="Shape" fill="#FFFFFF"></path>
                <path d="M35.3774865,21.9995541 L8.62162162,21.9995541 C8.62162162,29.3879865 14.6111216,35.3776351 21.9997027,35.3776351 C29.3879865,35.3776351 35.3774865,29.3879865 35.3774865,21.9995541 L35.3774865,21.9995541 Z M32.7022568,24.3779324 L32.7212838,24.3779324 C31.6313919,29.304 27.2391216,32.9992568 21.9903378,32.9992568 C16.7412568,32.9992568 12.3488378,29.304 11.2590946,24.3779324 L32.7022568,24.3779324 L32.7022568,24.3779324 Z" id="Shape" fill="#000000"></path>
                <circle id="Oval" fill="#000000" cx="14.6414459" cy="16.0537568" r="2.37837838"></circle>
                <circle id="Oval" fill="#000000" cx="29.3576622" cy="16.0537568" r="2.37837838"></circle>
            </g>
        </g>
    </g>
</svg>