<?xml version="1.0" encoding="UTF-8"?>
<svg width="44px" height="44px" viewBox="0 0 44 44" version="1.1" xmlns="http://www.w3.org/2000/svg" xmlns:xlink="http://www.w3.org/1999/xlink">
    <!-- Generator: Sketch 49.3 (51167) - http://www.bohemiancoding.com/sketch -->
    <title>muted</title>
    <desc>Created with Sketch.</desc>
    <defs></defs>
    <g id="Symbols" stroke="none" stroke-width="1" fill="none" fill-rule="evenodd">
        <g id="Components/Flux/Cards/Mood" transform="translate(-160.000000, -462.000000)">
            <g id="muted" transform="translate(160.000000, 462.000000)">
                <path d="M40.2831892,18.4321351 C40.2831892,16.7473514 40.0805811,15.1101351 39.7024189,13.5415946 C38.6218919,11.2892703 37.1233649,9.27418919 35.3086622,7.59624324 C31.9802703,5.60791892 28.0596622,4.52427027 23.8967568,4.67618919 C12.410973,5.09478378 3.43958108,14.7453514 3.85817568,26.2309865 C3.91956757,27.9113108 4.18074324,29.5367838 4.61435135,31.0877838 C5.55128378,32.8730541 6.75444595,34.4974865 8.17210811,35.906973 C11.4263243,38.0161486 15.3057568,39.2426486 19.4728243,39.2426486 C30.9658919,39.2426486 40.2831892,29.9253514 40.2831892,18.4321351 L40.2831892,18.4321351 Z M29.3576622,14.7159189 C30.6711216,14.7159189 31.7360405,15.7808378 31.7360405,17.0942973 C31.7360405,18.4077568 30.6711216,19.4726757 29.3576622,19.4726757 C28.0442027,19.4726757 26.9792838,18.4077568 26.9792838,17.0942973 C26.9792838,15.7808378 28.0442027,14.7159189 29.3576622,14.7159189 L29.3576622,14.7159189 Z M14.6414459,19.4726757 C13.3279865,19.4726757 12.2630676,18.4077568 12.2630676,17.0942973 C12.2630676,15.7808378 13.3279865,14.7159189 14.6414459,14.7159189 C15.9549054,14.7159189 17.0198243,15.7808378 17.0198243,17.0942973 C17.0198243,18.4077568 15.9549054,19.4726757 14.6414459,19.4726757 L14.6414459,19.4726757 Z M17.6301757,34.4328243 L20.2970811,31.7660676 L17.6303243,29.0996081 L19.3119865,27.4177973 L21.9983649,30.104027 L24.6847432,27.4177973 L26.3664054,29.0996081 L23.6995,31.7660676 L26.3665541,34.4328243 L24.6845946,36.1146351 L21.9983649,33.4282568 L19.3121351,36.1146351 L17.6301757,34.4328243 L17.6301757,34.4328243 Z" id="Shape" fill="#FFCE00"></path>
                <path d="M39.7024189,13.5415946 C40.0805811,15.1102838 40.2831892,16.7473514 40.2831892,18.4321351 C40.2831892,29.9253514 30.9658919,39.2426486 19.4726757,39.2426486 C15.3057568,39.2426486 11.4261757,38.0161486 8.17195946,35.906973 C11.7216892,39.4364865 16.6101486,41.621027 21.9997027,41.621027 C32.8189459,41.621027 41.621027,32.8189459 41.621027,21.9997027 C41.621027,18.9729189 40.9315946,16.1041486 39.7024189,13.5415946 L39.7024189,13.5415946 Z" id="Shape" fill="#FFB100"></path>
                <path d="M23.8967568,4.67604054 C28.0598108,4.52427027 31.9804189,5.60777027 35.3086622,7.59609459 C31.8085811,4.35956757 27.1315,2.37837838 21.9997027,2.37837838 C11.1804595,2.37837838 2.37837838,11.1804595 2.37837838,21.9997027 C2.37837838,25.2774054 3.18732432,28.3691486 4.61435135,31.0877838 C4.18074324,29.5367838 3.91956757,27.9113108 3.85817568,26.2309865 C3.43958108,14.7453514 12.410973,5.09478378 23.8967568,4.67604054 L23.8967568,4.67604054 Z" id="Shape" fill="#FFE454"></path>
                <path d="M21.9997027,0 C9.86908108,0 0,9.86908108 0,21.9997027 C0,34.1303243 9.86908108,43.9994054 21.9997027,43.9994054 C34.1303243,43.9994054 43.9994054,34.1303243 43.9994054,21.9997027 C43.9994054,9.86908108 34.1303243,0 21.9997027,0 L21.9997027,0 Z M21.9997027,41.621027 C16.6101486,41.621027 11.7216892,39.4364865 8.17195946,35.906973 C6.75444595,34.4974865 5.55113514,32.8730541 4.6142027,31.0877838 C3.18732432,28.3691486 2.37837838,25.2774054 2.37837838,21.9997027 C2.37837838,11.1804595 11.1804595,2.37837838 21.9997027,2.37837838 C27.1315,2.37837838 31.8085811,4.35956757 35.3086622,7.59624324 C37.1233649,9.27418919 38.6218919,11.2892703 39.7024189,13.5415946 C40.9317432,16.1041486 41.621027,18.9729189 41.621027,21.9997027 C41.621027,32.8189459 32.8189459,41.621027 21.9997027,41.621027 L21.9997027,41.621027 Z" id="Shape" fill="#000000"></path>
                <polygon id="Shape" fill="#000000" points="24.6845946 36.1146351 26.3664054 34.4328243 23.6995 31.7659189 26.3662568 29.0994595 24.6847432 27.4175 21.9982162 30.1038784 19.3118378 27.4175 17.6303243 29.0994595 20.2970811 31.7659189 17.6301757 34.4328243 19.3119865 36.1146351 21.9982162 33.4282568"></polygon>
                <circle id="Oval" fill="#000000" cx="14.6414459" cy="17.0942973" r="2.37837838"></circle>
                <circle id="Oval" fill="#000000" cx="29.3576622" cy="17.0942973" r="2.37837838"></circle>
            </g>
        </g>
    </g>
</svg>