<?xml version="1.0" encoding="UTF-8"?>
<svg width="44px" height="44px" viewBox="0 0 44 44" version="1.1" xmlns="http://www.w3.org/2000/svg" xmlns:xlink="http://www.w3.org/1999/xlink">
    <!-- Generator: Sketch 49.3 (51167) - http://www.bohemiancoding.com/sketch -->
    <title>sad</title>
    <desc>Created with Sketch.</desc>
    <defs></defs>
    <g id="Symbols" stroke="none" stroke-width="1" fill="none" fill-rule="evenodd">
        <g id="Components/Flux/Cards/Mood" transform="translate(-296.000000, -462.000000)">
            <g id="sad" transform="translate(296.000000, 462.000000)">
                <path d="M40.2831892,18.4321351 C40.2831892,16.7473514 40.0805811,15.1101351 39.7024189,13.5415946 C38.6218919,11.2892703 37.1233649,9.27418919 35.3086622,7.59624324 C31.9802703,5.60791892 28.0596622,4.52427027 23.8966081,4.67604054 C18.312473,4.87954054 13.3230811,7.2657973 9.71760811,10.9836486 L16.5132297,8.0407027 L17.4584865,10.2231622 L9.92631081,13.4851081 L9.12093243,11.6255135 C5.67287838,15.4927568 3.65452703,20.6446216 3.85817568,26.2309865 C3.91956757,27.9113108 4.18074324,29.5367838 4.61435135,31.0877838 C5.55128378,32.8730541 6.75444595,34.4974865 8.17210811,35.906973 C11.4263243,38.0161486 15.3057568,39.2426486 19.4728243,39.2426486 C30.9658919,39.2426486 40.2831892,29.9253514 40.2831892,18.4321351 L40.2831892,18.4321351 Z M27.4857297,8.0407027 L35.0180541,11.3026486 L34.0727973,13.4851081 L26.540473,10.2231622 L27.4857297,8.0407027 L27.4857297,8.0407027 Z M31.7360405,17.2429459 C31.7360405,18.5564054 30.6711216,19.6213243 29.3576622,19.6213243 C28.0442027,19.6213243 26.9792838,18.5564054 26.9792838,17.2429459 C26.9792838,15.9294865 28.0442027,14.8645676 29.3576622,14.8645676 C30.6711216,14.8645676 31.7360405,15.9294865 31.7360405,17.2429459 L31.7360405,17.2429459 Z M14.6414459,14.8645676 C15.9549054,14.8645676 17.0198243,15.9294865 17.0198243,17.2429459 C17.0198243,18.5564054 15.9549054,19.6213243 14.6414459,19.6213243 C13.3279865,19.6213243 12.2630676,18.5564054 12.2630676,17.2429459 C12.2630676,15.9294865 13.3279865,14.8645676 14.6414459,14.8645676 L14.6414459,14.8645676 Z M11.6516757,31.1430811 L9.47427027,30.1860811 C11.5363243,25.4938378 16.1711892,22.2910541 21.2821757,22.0264595 C26.4263108,21.7591892 31.3889459,24.4873378 33.9193919,28.9748919 C34.1402838,29.3667297 34.3440811,29.7741757 34.5251351,30.1860811 L32.3477297,31.1427838 C32.1983378,30.802973 32.0302162,30.4667297 31.8478243,30.1432703 C29.7569324,26.4350811 25.6542297,24.1812703 21.4052568,24.4015676 C17.1836351,24.6202297 13.3553378,27.2663243 11.6516757,31.1430811 L11.6516757,31.1430811 Z" id="Shape" fill="#FFCE00"></path>
                <path d="M39.7024189,13.5415946 C40.0805811,15.1102838 40.2831892,16.7473514 40.2831892,18.4321351 C40.2831892,29.9253514 30.9658919,39.2426486 19.4726757,39.2426486 C15.3057568,39.2426486 11.4261757,38.0161486 8.17195946,35.906973 C11.7216892,39.4364865 16.6101486,41.621027 21.9997027,41.621027 C32.8189459,41.621027 41.621027,32.8189459 41.621027,21.9997027 C41.621027,18.9729189 40.9315946,16.1041486 39.7024189,13.5415946 L39.7024189,13.5415946 Z" id="Shape" fill="#FFB100"></path>
                <path d="M9.12093243,11.6255135 L8.98105405,11.3026486 L9.71775676,10.9836486 C13.3232297,7.2657973 18.312473,4.87968919 23.8967568,4.67604054 C28.0598108,4.52427027 31.9804189,5.60777027 35.3088108,7.59624324 C31.8085811,4.35956757 27.1315,2.37837838 21.9997027,2.37837838 C11.1804595,2.37837838 2.37837838,11.1804595 2.37837838,21.9997027 C2.37837838,25.2772568 3.18732432,28.3691486 4.61435135,31.0877838 C4.18074324,29.5367838 3.91956757,27.9113108 3.85817568,26.2309865 C3.65452703,20.6446216 5.67287838,15.4927568 9.12093243,11.6255135 L9.12093243,11.6255135 Z" id="Shape" fill="#FFE454"></path>
                <path d="M21.9997027,0 C9.86908108,0 0,9.86908108 0,21.9997027 C0,34.1303243 9.86908108,43.9994054 21.9997027,43.9994054 C34.1303243,43.9994054 43.9994054,34.1303243 43.9994054,21.9997027 C43.9994054,9.86908108 34.130473,0 21.9997027,0 L21.9997027,0 Z M21.9997027,41.621027 C16.6101486,41.621027 11.7216892,39.4364865 8.17195946,35.906973 C6.75444595,34.4974865 5.55113514,32.8730541 4.6142027,31.0877838 C3.18732432,28.3691486 2.37837838,25.2772568 2.37837838,21.9997027 C2.37837838,11.1804595 11.1804595,2.37837838 21.9997027,2.37837838 C27.1315,2.37837838 31.8085811,4.35956757 35.3086622,7.59624324 C37.1233649,9.27418919 38.6218919,11.2892703 39.7024189,13.5415946 C40.9317432,16.1041486 41.621027,18.9729189 41.621027,21.9997027 C41.621027,32.8189459 32.8189459,41.621027 21.9997027,41.621027 L21.9997027,41.621027 Z M13.6952973,41.0855946 C13.730973,41.1012027 13.7666486,41.1171081 13.8026216,41.1325676 C13.7666486,41.1169595 13.730973,41.1012027 13.6952973,41.0855946 L13.6952973,41.0855946 Z" id="Shape" fill="#000000"></path>
                <circle id="Oval" fill="#000000" cx="14.6414459" cy="17.2429459" r="2.37837838"></circle>
                <circle id="Oval" fill="#000000" cx="29.3576622" cy="17.2429459" r="2.37837838"></circle>
                <rect id="Rectangle-path" fill="#000000" transform="translate(30.778987, 10.763265) rotate(203.416776) translate(-30.778987, -10.763265) " x="26.6751179" y="9.57419973" width="8.20773847" height="2.37813046"></rect>
                <polygon id="Shape" fill="#000000" points="9.12093243 11.6255135 9.92631081 13.4851081 17.4586351 10.2231622 16.5133784 8.0407027 9.71775676 10.9836486 8.98105405 11.3026486"></polygon>
                <path d="M31.847527,30.1434189 C32.0300676,30.4668784 32.1980405,30.8031216 32.3474324,31.1429324 L34.5248378,30.1862297 C34.3437838,29.7743243 34.1399865,29.3667297 33.9190946,28.9750405 C31.3887973,24.4874865 26.4261622,21.7593378 21.2818784,22.0266081 C16.1708919,22.2910541 11.536027,25.4938378 9.47397297,30.1862297 L11.6513784,31.1432297 C13.3550405,27.266473 17.1833378,24.6203784 21.4046622,24.4018649 C25.6539324,24.1814189 29.7566351,26.4352297 31.847527,30.1434189 L31.847527,30.1434189 Z" id="Shape" fill="#000000"></path>
            </g>
        </g>
    </g>
</svg>